<svg width="442" height="35" viewBox="0 0 442 35" fill="none" xmlns="http://www.w3.org/2000/svg">
<path d="M0.948125 14.8C0.948125 21.488 5.84413 26.192 12.2761 26.192C17.2361 26.192 21.2681 23.568 22.7721 18.96H17.6201C16.5641 21.136 14.6441 22.192 12.2441 22.192C8.34013 22.192 5.55613 19.312 5.55613 14.8C5.55613 10.256 8.34013 7.408 12.2441 7.408C14.6441 7.408 16.5641 8.464 17.6201 10.608H22.7721C21.2681 6.032 17.2361 3.376 12.2761 3.376C5.84413 3.376 0.948125 8.112 0.948125 14.8ZM25.4466 17.072C25.4466 22.608 29.0306 26.288 33.5106 26.288C36.3266 26.288 38.3426 24.944 39.3986 23.408V26H43.9106V8.272H39.3986V10.8C38.3426 9.328 36.3906 7.984 33.5426 7.984C29.0306 7.984 25.4466 11.536 25.4466 17.072ZM39.3986 17.136C39.3986 20.496 37.1586 22.352 34.6946 22.352C32.2946 22.352 30.0226 20.432 30.0226 17.072C30.0226 13.712 32.2946 11.92 34.6946 11.92C37.1586 11.92 39.3986 13.776 39.3986 17.136ZM52.7661 17.168C52.7661 13.744 54.3661 12.72 57.0221 12.72H58.2061V8.016C55.7421 8.016 53.8861 9.2 52.7661 11.024V8.272H48.2861V26H52.7661V17.168ZM65.7036 17.168C65.7036 13.744 67.3036 12.72 69.9596 12.72H71.1436V8.016C68.6796 8.016 66.8236 9.2 65.7036 11.024V8.272H61.2236V26H65.7036V17.168ZM91.2811 17.136C91.2811 11.536 87.2811 7.984 82.1611 7.984C77.0411 7.984 73.0411 11.536 73.0411 17.136C73.0411 22.704 76.9131 26.288 82.0331 26.288C87.1851 26.288 91.2811 22.704 91.2811 17.136ZM77.5851 17.136C77.5851 13.584 79.7291 11.888 82.0971 11.888C84.4651 11.888 86.6731 13.584 86.6731 17.136C86.6731 20.656 84.4011 22.384 82.0331 22.384C79.6331 22.384 77.5851 20.656 77.5851 17.136ZM95.2714 20.496C95.2714 24.56 97.5434 26 100.935 26H103.751V22.224H101.671C100.263 22.224 99.7834 21.712 99.7834 20.528V11.952H103.751V8.272H99.7834V3.888H95.2714V8.272H93.1594V11.952H95.2714V20.496ZM120.734 20.944C120.606 14.448 110.782 16.464 110.782 13.232C110.782 12.208 111.646 11.536 113.31 11.536C115.07 11.536 116.158 12.464 116.286 13.84H120.574C120.318 10.32 117.726 7.984 113.438 7.984C109.054 7.984 106.43 10.352 106.43 13.296C106.43 19.792 116.446 17.776 116.446 20.944C116.446 21.968 115.486 22.768 113.726 22.768C111.934 22.768 110.686 21.744 110.526 20.4H106.014C106.206 23.696 109.31 26.288 113.758 26.288C118.078 26.288 120.734 23.984 120.734 20.944ZM132.516 26H137.06V11.952H140.164V8.272H137.06V7.536C137.06 5.552 137.796 4.848 139.972 4.912V1.136C134.98 1.008 132.516 3.024 132.516 7.376V8.272H130.5V11.952H132.516V26ZM147.547 17.168C147.547 13.744 149.147 12.72 151.803 12.72H152.987V8.016C150.523 8.016 148.667 9.2 147.547 11.024V8.272H143.067V26H147.547V17.168ZM173.125 17.136C173.125 11.536 169.125 7.984 164.005 7.984C158.885 7.984 154.885 11.536 154.885 17.136C154.885 22.704 158.757 26.288 163.877 26.288C169.029 26.288 173.125 22.704 173.125 17.136ZM159.429 17.136C159.429 13.584 161.573 11.888 163.941 11.888C166.309 11.888 168.517 13.584 168.517 17.136C168.517 20.656 166.245 22.384 163.877 22.384C161.477 22.384 159.429 20.656 159.429 17.136ZM201.211 26H205.691V15.6C205.691 10.704 202.683 8.016 198.427 8.016C195.835 8.016 193.499 9.392 192.347 11.408C191.131 9.2 188.859 8.016 186.107 8.016C183.899 8.016 182.011 8.944 180.891 10.416V8.272H176.411V26H180.891V16.208C180.891 13.392 182.459 11.92 184.891 11.92C187.259 11.92 188.827 13.392 188.827 16.208V26H193.307V16.208C193.307 13.392 194.875 11.92 197.275 11.92C199.643 11.92 201.211 13.392 201.211 16.208V26ZM216.383 7.28H222.335V26H226.815V7.28H232.767V3.664H216.383V7.28ZM253.156 17.136C253.156 11.536 249.156 7.984 244.036 7.984C238.916 7.984 234.916 11.536 234.916 17.136C234.916 22.704 238.788 26.288 243.908 26.288C249.06 26.288 253.156 22.704 253.156 17.136ZM239.46 17.136C239.46 13.584 241.604 11.888 243.972 11.888C246.34 11.888 248.548 13.584 248.548 17.136C248.548 20.656 246.276 22.384 243.908 22.384C241.508 22.384 239.46 20.656 239.46 17.136ZM281.242 26H285.722V15.6C285.722 10.704 282.714 8.016 278.458 8.016C275.866 8.016 273.53 9.392 272.378 11.408C271.162 9.2 268.89 8.016 266.138 8.016C263.93 8.016 262.042 8.944 260.922 10.416V8.272H256.442V26H260.922V16.208C260.922 13.392 262.49 11.92 264.922 11.92C267.29 11.92 268.858 13.392 268.858 16.208V26H273.338V16.208C273.338 13.392 274.906 11.92 277.306 11.92C279.674 11.92 281.242 13.392 281.242 16.208V26ZM289.974 26H294.454V8.272H289.974V26ZM292.246 6.16C293.814 6.16 294.998 5.008 294.998 3.536C294.998 2.064 293.814 0.911999 292.246 0.911999C290.646 0.911999 289.494 2.064 289.494 3.536C289.494 5.008 290.646 6.16 292.246 6.16ZM312.64 20.944C312.512 14.448 302.688 16.464 302.688 13.232C302.688 12.208 303.552 11.536 305.216 11.536C306.976 11.536 308.064 12.464 308.192 13.84H312.48C312.224 10.32 309.632 7.984 305.344 7.984C300.96 7.984 298.336 10.352 298.336 13.296C298.336 19.792 308.352 17.776 308.352 20.944C308.352 21.968 307.392 22.768 305.632 22.768C303.84 22.768 302.592 21.744 302.432 20.4H297.92C298.112 23.696 301.216 26.288 305.664 26.288C309.984 26.288 312.64 23.984 312.64 20.944ZM330.077 20.944C329.949 14.448 320.125 16.464 320.125 13.232C320.125 12.208 320.989 11.536 322.653 11.536C324.413 11.536 325.501 12.464 325.629 13.84H329.917C329.661 10.32 327.069 7.984 322.781 7.984C318.397 7.984 315.773 10.352 315.773 13.296C315.773 19.792 325.789 17.776 325.789 20.944C325.789 21.968 324.829 22.768 323.069 22.768C321.277 22.768 320.029 21.744 319.869 20.4H315.357C315.549 23.696 318.653 26.288 323.101 26.288C327.421 26.288 330.077 23.984 330.077 20.944ZM341.307 20.656L336.731 8.272H331.707L338.811 25.552L334.971 34.384H339.739L350.715 8.272H345.947L341.307 20.656ZM360.755 26H365.235V16.56H372.371V13.008H365.235V7.28H374.547V3.664H360.755V26ZM376.572 17.072C376.572 22.608 380.156 26.288 384.636 26.288C387.452 26.288 389.468 24.944 390.524 23.408V26H395.036V8.272H390.524V10.8C389.468 9.328 387.516 7.984 384.668 7.984C380.156 7.984 376.572 11.536 376.572 17.072ZM390.524 17.136C390.524 20.496 388.284 22.352 385.82 22.352C383.42 22.352 381.148 20.432 381.148 17.072C381.148 13.712 383.42 11.92 385.82 11.92C388.284 11.92 390.524 13.776 390.524 17.136ZM403.891 17.168C403.891 13.744 405.491 12.72 408.147 12.72H409.331V8.016C406.867 8.016 405.011 9.2 403.891 11.024V8.272H399.411V26H403.891V17.168ZM437.149 26H441.629V15.6C441.629 10.704 438.621 8.016 434.365 8.016C431.773 8.016 429.437 9.392 428.285 11.408C427.069 9.2 424.797 8.016 422.045 8.016C419.837 8.016 417.949 8.944 416.829 10.416V8.272H412.349V26H416.829V16.208C416.829 13.392 418.397 11.92 420.829 11.92C423.197 11.92 424.765 13.392 424.765 16.208V26H429.245V16.208C429.245 13.392 430.813 11.92 433.213 11.92C435.581 11.92 437.149 13.392 437.149 16.208V26Z" fill="#151515"/>
</svg>
